<?xml version="1.0" encoding="utf-8"?>
<!-- Generator: Adobe Illustrator 27.5.0, SVG Export Plug-In . SVG Version: 6.00 Build 0)  -->
<svg version="1.1" xmlns="http://www.w3.org/2000/svg" xmlns:xlink="http://www.w3.org/1999/xlink" x="0px" y="0px"
	 viewBox="0 0 500 500" style="enable-background:new 0 0 500 500;" xml:space="preserve">
<g id="Background_Simple">
	<g>
		<path style="fill:#92E3A9;" d="M464.856,277.39c-14.722,39.433-44.804,82.112-87.135,94.748
			c-63.961,19.098-71.602,70.655-186.163,65.873c-17.862-0.744-34.371-3.255-49.538-7.264c-8.153-2.154-15.92-4.753-23.291-7.747
			C51.804,395.892,16.892,336.231,13.994,273.806c-3.825-82.102,53.46-121.236,90.69-144.15
			c37.231-22.914,82.102-111.701,194.76-107.885c17.176,0.589,34.313,2.937,50.919,7.438c37.907,10.259,76.441,32.951,98.834,66.124
			c1.681,2.492,3.285,5.043,4.82,7.641C483.984,153.816,484.93,223.631,464.856,277.39z"/>
		<path style="opacity:0.7;fill:#FFFFFF;" d="M464.856,277.39c-14.722,39.433-44.804,82.112-87.135,94.748
			c-63.961,19.098-71.602,70.655-186.163,65.873c-17.862-0.744-34.371-3.255-49.538-7.264c-8.153-2.154-15.92-4.753-23.291-7.747
			C51.804,395.892,16.892,336.231,13.994,273.806c-3.825-82.102,53.46-121.236,90.69-144.15
			c37.231-22.914,82.102-111.701,194.76-107.885c17.176,0.589,34.313,2.937,50.919,7.438c37.907,10.259,76.441,32.951,98.834,66.124
			c1.681,2.492,3.285,5.043,4.82,7.641C483.984,153.816,484.93,223.631,464.856,277.39z"/>
	</g>
</g>
<g id="Window">
	<g style="opacity:0.3;">
		<g>
			<path style="fill:none;stroke:#000000;stroke-linecap:round;stroke-linejoin:round;stroke-miterlimit:10;" d="M25.727,66.254
				v228.331h74.169V66.254H25.727z M96.161,71.328v33.702h-30.87V71.328H96.161z M60.678,71.328v33.702H29.463V71.328H60.678z
				 M29.463,110.376h31.215v33.439H29.463V110.376z M96.161,289.511H29.463V149.613h66.699V289.511z M65.291,143.814v-33.439h30.87
				v33.439H65.291z"/>
			<path style="fill:none;stroke:#000000;stroke-linecap:round;stroke-linejoin:round;stroke-miterlimit:10;" d="M99.609,66.254
				v228.331h74.169V66.254H99.609z M170.044,71.328v33.702h-30.87V71.328H170.044z M134.56,71.328v33.702h-31.215V71.328H134.56z
				 M103.345,110.376h31.215v33.439h-31.215V110.376z M170.044,289.511h-66.699V149.613h66.699V289.511z M139.173,143.814v-33.439
				h30.87v33.439H139.173z"/>
		</g>
		<g>
			
				<line style="fill:none;stroke:#000000;stroke-linecap:round;stroke-linejoin:round;stroke-miterlimit:10;" x1="79.557" y1="187.512" x2="60.937" y2="210.687"/>
			
				<line style="fill:none;stroke:#000000;stroke-linecap:round;stroke-linejoin:round;stroke-miterlimit:10;" x1="84.18" y1="181.759" x2="81.22" y2="185.443"/>
			
				<line style="fill:none;stroke:#000000;stroke-linecap:round;stroke-linejoin:round;stroke-miterlimit:10;" x1="40.694" y1="227.587" x2="36.879" y2="232.069"/>
			
				<line style="fill:none;stroke:#000000;stroke-linecap:round;stroke-linejoin:round;stroke-miterlimit:10;" x1="65.423" y1="198.529" x2="43.548" y2="224.233"/>
		</g>
		<g>
			
				<line style="fill:none;stroke:#000000;stroke-linecap:round;stroke-linejoin:round;stroke-miterlimit:10;" x1="154.586" y1="194.589" x2="135.966" y2="217.764"/>
			
				<line style="fill:none;stroke:#000000;stroke-linecap:round;stroke-linejoin:round;stroke-miterlimit:10;" x1="159.208" y1="188.836" x2="156.249" y2="192.519"/>
			
				<line style="fill:none;stroke:#000000;stroke-linecap:round;stroke-linejoin:round;stroke-miterlimit:10;" x1="115.722" y1="234.663" x2="111.908" y2="239.145"/>
			
				<line style="fill:none;stroke:#000000;stroke-linecap:round;stroke-linejoin:round;stroke-miterlimit:10;" x1="140.451" y1="205.605" x2="118.576" y2="231.309"/>
		</g>
		<g>
			
				<line style="fill:none;stroke:#000000;stroke-linecap:round;stroke-linejoin:round;stroke-miterlimit:10;" x1="163.186" y1="76.626" x2="154.274" y2="87.718"/>
			
				<line style="fill:none;stroke:#000000;stroke-linecap:round;stroke-linejoin:round;stroke-miterlimit:10;" x1="165.399" y1="73.872" x2="163.982" y2="75.635"/>
			
				<line style="fill:none;stroke:#000000;stroke-linecap:round;stroke-linejoin:round;stroke-miterlimit:10;" x1="144.584" y1="95.807" x2="142.758" y2="97.953"/>
			
				<line style="fill:none;stroke:#000000;stroke-linecap:round;stroke-linejoin:round;stroke-miterlimit:10;" x1="156.421" y1="81.899" x2="145.95" y2="94.202"/>
		</g>
		<g>
			
				<line style="fill:none;stroke:#000000;stroke-linecap:round;stroke-linejoin:round;stroke-miterlimit:10;" x1="128.406" y1="76.626" x2="119.493" y2="87.718"/>
			
				<line style="fill:none;stroke:#000000;stroke-linecap:round;stroke-linejoin:round;stroke-miterlimit:10;" x1="130.619" y1="73.872" x2="129.202" y2="75.635"/>
			
				<line style="fill:none;stroke:#000000;stroke-linecap:round;stroke-linejoin:round;stroke-miterlimit:10;" x1="109.804" y1="95.807" x2="107.978" y2="97.953"/>
			
				<line style="fill:none;stroke:#000000;stroke-linecap:round;stroke-linejoin:round;stroke-miterlimit:10;" x1="121.64" y1="81.899" x2="111.17" y2="94.202"/>
		</g>
		<g>
			
				<line style="fill:none;stroke:#000000;stroke-linecap:round;stroke-linejoin:round;stroke-miterlimit:10;" x1="128.406" y1="118.184" x2="119.493" y2="129.277"/>
			
				<line style="fill:none;stroke:#000000;stroke-linecap:round;stroke-linejoin:round;stroke-miterlimit:10;" x1="130.619" y1="115.43" x2="129.202" y2="117.193"/>
			
				<line style="fill:none;stroke:#000000;stroke-linecap:round;stroke-linejoin:round;stroke-miterlimit:10;" x1="109.804" y1="137.366" x2="107.978" y2="139.511"/>
			
				<line style="fill:none;stroke:#000000;stroke-linecap:round;stroke-linejoin:round;stroke-miterlimit:10;" x1="121.64" y1="123.457" x2="111.17" y2="135.76"/>
		</g>
		<g>
			
				<line style="fill:none;stroke:#000000;stroke-linecap:round;stroke-linejoin:round;stroke-miterlimit:10;" x1="159.426" y1="118.184" x2="150.514" y2="129.277"/>
			
				<line style="fill:none;stroke:#000000;stroke-linecap:round;stroke-linejoin:round;stroke-miterlimit:10;" x1="161.639" y1="115.43" x2="160.222" y2="117.193"/>
			
				<line style="fill:none;stroke:#000000;stroke-linecap:round;stroke-linejoin:round;stroke-miterlimit:10;" x1="140.824" y1="137.366" x2="138.998" y2="139.511"/>
			
				<line style="fill:none;stroke:#000000;stroke-linecap:round;stroke-linejoin:round;stroke-miterlimit:10;" x1="152.661" y1="123.457" x2="142.19" y2="135.76"/>
		</g>
		<g>
			
				<line style="fill:none;stroke:#000000;stroke-linecap:round;stroke-linejoin:round;stroke-miterlimit:10;" x1="89.866" y1="76.626" x2="80.953" y2="87.718"/>
			
				<line style="fill:none;stroke:#000000;stroke-linecap:round;stroke-linejoin:round;stroke-miterlimit:10;" x1="92.078" y1="73.872" x2="90.662" y2="75.635"/>
			
				<line style="fill:none;stroke:#000000;stroke-linecap:round;stroke-linejoin:round;stroke-miterlimit:10;" x1="71.263" y1="95.807" x2="69.438" y2="97.953"/>
			
				<line style="fill:none;stroke:#000000;stroke-linecap:round;stroke-linejoin:round;stroke-miterlimit:10;" x1="83.1" y1="81.899" x2="72.63" y2="94.202"/>
		</g>
		<g>
			
				<line style="fill:none;stroke:#000000;stroke-linecap:round;stroke-linejoin:round;stroke-miterlimit:10;" x1="89.866" y1="117.217" x2="80.953" y2="128.31"/>
			
				<line style="fill:none;stroke:#000000;stroke-linecap:round;stroke-linejoin:round;stroke-miterlimit:10;" x1="92.078" y1="114.464" x2="90.662" y2="116.227"/>
			
				<line style="fill:none;stroke:#000000;stroke-linecap:round;stroke-linejoin:round;stroke-miterlimit:10;" x1="71.263" y1="136.399" x2="69.438" y2="138.545"/>
			
				<line style="fill:none;stroke:#000000;stroke-linecap:round;stroke-linejoin:round;stroke-miterlimit:10;" x1="83.1" y1="122.491" x2="72.63" y2="134.794"/>
		</g>
		<g>
			
				<line style="fill:none;stroke:#000000;stroke-linecap:round;stroke-linejoin:round;stroke-miterlimit:10;" x1="56.026" y1="117.217" x2="47.113" y2="128.31"/>
			
				<line style="fill:none;stroke:#000000;stroke-linecap:round;stroke-linejoin:round;stroke-miterlimit:10;" x1="58.238" y1="114.464" x2="56.821" y2="116.227"/>
			
				<line style="fill:none;stroke:#000000;stroke-linecap:round;stroke-linejoin:round;stroke-miterlimit:10;" x1="37.423" y1="136.399" x2="35.597" y2="138.545"/>
			
				<line style="fill:none;stroke:#000000;stroke-linecap:round;stroke-linejoin:round;stroke-miterlimit:10;" x1="49.26" y1="122.491" x2="38.789" y2="134.794"/>
		</g>
		<g>
			
				<line style="fill:none;stroke:#000000;stroke-linecap:round;stroke-linejoin:round;stroke-miterlimit:10;" x1="53.676" y1="76.626" x2="44.763" y2="87.718"/>
			
				<line style="fill:none;stroke:#000000;stroke-linecap:round;stroke-linejoin:round;stroke-miterlimit:10;" x1="55.888" y1="73.872" x2="54.471" y2="75.635"/>
			
				<line style="fill:none;stroke:#000000;stroke-linecap:round;stroke-linejoin:round;stroke-miterlimit:10;" x1="35.073" y1="95.807" x2="33.248" y2="97.953"/>
			
				<line style="fill:none;stroke:#000000;stroke-linecap:round;stroke-linejoin:round;stroke-miterlimit:10;" x1="46.91" y1="81.899" x2="36.439" y2="94.202"/>
		</g>
	</g>
</g>
<g id="Couch">
	<g>
		<path style="fill:none;stroke:#263238;stroke-linejoin:round;stroke-miterlimit:10;" d="M446.23,346.192v-51.624v-23.23
			c0-6.877-5.566-12.443-12.443-12.443H321.03h-0.957v87.297v0.863"/>
		<path style="fill:none;stroke:#263238;stroke-linejoin:round;stroke-miterlimit:10;" d="M321.03,258.896h-0.957H205.194
			c-6.867,0-12.433,5.566-12.433,12.443v25.186v49.668"/>
		<path style="fill:none;stroke:#263238;stroke-linejoin:round;stroke-miterlimit:10;" d="M457.466,354.464v29.11H320.125v-37.381
			h129.07C453.763,346.192,457.466,349.896,457.466,354.464z"/>
		<path style="fill:none;stroke:#263238;stroke-linejoin:round;stroke-miterlimit:10;" d="M321.176,346.192h-0.146h-0.905h-0.052
			H195.071h-2.31h-2.965c-4.567,0-8.271,3.704-8.271,8.271v29.11h138.6h1.051"/>
		
			<rect x="181.525" y="383.573" style="fill:none;stroke:#263238;stroke-linejoin:round;stroke-miterlimit:10;" width="276.17" height="46.901"/>
		<path style="fill:none;stroke:#263238;stroke-linejoin:round;stroke-miterlimit:10;" d="M192.761,296.525
			c-1.519-1.581-3.662-2.57-6.024-2.57h-25.011c-4.609,0-8.344,3.725-8.344,8.333V422.14c0,4.599,3.735,8.333,8.344,8.333h19.798
			h5.212"/>
		<path style="fill:none;stroke:#263238;stroke-linejoin:round;stroke-miterlimit:10;" d="M449.362,430.474h8.333h16.677
			c4.599,0,8.333-3.735,8.333-8.333V302.288c0-4.609-3.735-8.333-8.333-8.333h-25.011c-1.113,0-2.164,0.218-3.132,0.614"/>
	</g>
</g>
<g id="Floor">
	<line style="fill:none;stroke:#263238;stroke-miterlimit:10;" x1="12" y1="431.052" x2="487.223" y2="431.052"/>
</g>
<g id="Box_3">
	<g>
		<g>
			<rect x="228.862" y="289.529" style="fill:#FFFFFF;stroke:#263238;stroke-miterlimit:10;" width="29.482" height="41.511"/>
			<rect x="230.464" y="291.785" style="fill:#FFFFFF;stroke:#263238;stroke-miterlimit:10;" width="26.278" height="37"/>
			<rect x="237.929" y="302.295" style="fill:#CFCFCF;stroke:#263238;stroke-miterlimit:10;" width="11.349" height="15.979"/>
		</g>
		<g>
			<path style="fill:#FFFFFF;stroke:#263238;stroke-miterlimit:10;" d="M287.466,276.455c0,0-4.878-1.951-7.804-3.252
				c-2.927-1.301-3.902-3.577-3.902-3.577l-17.072,55.117l7.967,2.114L287.466,276.455z"/>
			<path style="fill:#FFFFFF;stroke:#263238;stroke-miterlimit:10;" d="M258.688,324.743l23.413-57.068c0,0-0.488-0.976,4.39,1.951
				c4.878,2.927,5.853,9.755,5.853,9.755l-25.364,48.776L258.688,324.743z"/>
		</g>
		<g>
			<rect x="222.08" y="316.561" style="fill:#CFCFCF;stroke:#263238;stroke-miterlimit:10;" width="73.581" height="48.383"/>
			<rect x="257.858" y="316.561" style="fill:#CFCFCF;stroke:#263238;stroke-miterlimit:10;" width="37.803" height="48.383"/>
		</g>
	</g>
</g>
<g id="Box_2">
	<g>
		<rect x="213.376" y="364.902" style="fill:#CFCFCF;stroke:#263238;stroke-miterlimit:10;" width="90.347" height="76.67"/>
		<rect x="257.306" y="364.902" style="fill:#CFCFCF;stroke:#263238;stroke-miterlimit:10;" width="46.417" height="76.67"/>
	</g>
</g>
<g id="Plant">
	<g>
		<g>
			<ellipse style="fill:#92E3A9;stroke:#263238;stroke-miterlimit:10;" cx="63.808" cy="294.283" rx="8.404" ry="22.043"/>
			
				<ellipse transform="matrix(0.3028 -0.9531 0.9531 0.3028 -207.3897 273.7421)" style="fill:#92E3A9;stroke:#263238;stroke-miterlimit:10;" cx="83.403" cy="278.618" rx="15.709" ry="6.837"/>
			<path style="fill:#92E3A9;stroke:#263238;stroke-miterlimit:10;" d="M28.255,330.548c-8.554-1.449-14.977-5.642-14.347-9.365
				c0.631-3.723,8.076-5.566,16.631-4.117c8.554,1.449,14.977,5.642,14.347,9.365C44.255,330.154,36.809,331.997,28.255,330.548z"/>
			<path style="fill:#92E3A9;stroke:#263238;stroke-miterlimit:10;" d="M97.831,310.169c-7.145,7.086-15.586,10.158-18.855,6.863
				c-3.268-3.296-0.126-11.711,7.019-18.797c7.145-7.086,15.586-10.158,18.855-6.863
				C108.118,294.668,104.976,303.084,97.831,310.169z"/>
			<path style="fill:#92E3A9;stroke:#263238;stroke-miterlimit:10;" d="M48.599,290.734c6.909,10.024,8.967,20.591,4.598,23.603
				c-4.369,3.012-13.512-2.673-20.421-12.697c-6.909-10.024-8.967-20.591-4.598-23.603C32.548,275.025,41.69,280.71,48.599,290.734z
				"/>
			
				<line style="fill:none;stroke:#263238;stroke-linecap:round;stroke-miterlimit:10;" x1="64.398" y1="315.226" x2="65.048" y2="345.534"/>
			
				<line style="fill:none;stroke:#263238;stroke-linecap:round;stroke-miterlimit:10;" x1="63.614" y1="286.087" x2="64.398" y2="315.226"/>
			
				<line style="fill:none;stroke:#263238;stroke-linecap:round;stroke-miterlimit:10;" x1="63.67" y1="281.332" x2="63.614" y2="283.565"/>
			<path style="fill:none;stroke:#263238;stroke-linecap:round;stroke-miterlimit:10;" d="M53.166,312.905
				c4.212,8.848,7.638,19.594,8.3,31.802"/>
			<path style="fill:none;stroke:#263238;stroke-linecap:round;stroke-miterlimit:10;" d="M38.73,290.819
				c3.918,4.523,9.679,12.094,14.436,22.086"/>
			<path style="fill:none;stroke:#263238;stroke-linecap:round;stroke-miterlimit:10;" d="M34.187,286.017
				c0,0,0.871,0.796,2.303,2.319"/>
			<path style="fill:none;stroke:#263238;stroke-linecap:round;stroke-miterlimit:10;" d="M79.499,316.016
				c-4.903,6.777-9.827,15.646-13.624,27.038"/>
			<path style="fill:none;stroke:#263238;stroke-linecap:round;stroke-miterlimit:10;" d="M89.167,304.906
				c-2.967,2.814-6.313,6.472-9.668,11.11"/>
			<path style="fill:none;stroke:#263238;stroke-linecap:round;stroke-miterlimit:10;" d="M99.491,297.038
				c0,0-2.997,1.536-7.362,5.216"/>
			<path style="fill:none;stroke:#263238;stroke-linecap:round;stroke-miterlimit:10;" d="M79.145,291.542
				c-4.655,14.651-10.905,36.302-13.821,55.094"/>
			<path style="fill:none;stroke:#263238;stroke-linecap:round;stroke-miterlimit:10;" d="M81.981,282.85
				c-0.828,2.471-1.792,5.405-2.837,8.691"/>
			<path style="fill:none;stroke:#263238;stroke-linecap:round;stroke-miterlimit:10;" d="M84.887,274.444
				c0,0-0.814,2.243-2.123,6.09"/>
			<path style="fill:none;stroke:#263238;stroke-linecap:round;stroke-miterlimit:10;" d="M44.455,324.401
				c5.816,2.206,11.495,6.461,14.256,14.52"/>
			<path style="fill:none;stroke:#263238;stroke-linecap:round;stroke-miterlimit:10;" d="M33.71,322.216
				c3.131,0.184,6.967,0.752,10.745,2.185"/>
			<path style="fill:none;stroke:#263238;stroke-linecap:round;stroke-miterlimit:10;" d="M26.748,322.388
				c0,0,1.035-0.148,2.743-0.215"/>
			<path style="fill:#92E3A9;stroke:#263238;stroke-miterlimit:10;" d="M101.459,330.548c8.554-1.449,14.977-5.642,14.347-9.365
				c-0.631-3.723-8.076-5.566-16.631-4.117c-8.554,1.449-14.977,5.642-14.347,9.365C85.46,330.154,92.905,331.997,101.459,330.548z"
				/>
			<path style="fill:none;stroke:#263238;stroke-linecap:round;stroke-miterlimit:10;" d="M85.444,324.332
				c-5.88,2.185-11.651,6.445-14.44,14.589"/>
			<path style="fill:none;stroke:#263238;stroke-linecap:round;stroke-miterlimit:10;" d="M96.905,322.172
				c-3.23,0.123-7.372,0.639-11.461,2.159"/>
			<path style="fill:none;stroke:#263238;stroke-linecap:round;stroke-miterlimit:10;" d="M102.967,322.388
				c0,0-0.682-0.097-1.852-0.17"/>
		</g>
		<g>
			<path style="fill:#263238;" d="M85.321,364.674c2.51-5.25,3.975-11.313,3.975-17.35c0-3.739-0.566-7.314-1.59-10.608H42.941
				c-1.023,3.295-1.59,6.869-1.59,10.608c0,6.037,1.465,12.099,3.975,17.35H85.321z"/>
			<g>
				<path style="fill:#7A7A7A;" d="M41.793,341.676c-0.128,0.815-0.227,1.643-0.299,2.48h47.66c-0.073-0.837-0.171-1.665-0.299-2.48
					H41.793z"/>
				<path style="fill:#7A7A7A;" d="M88.646,354.351c0.149-0.822,0.28-1.648,0.378-2.48H41.623c0.098,0.831,0.228,1.658,0.378,2.48
					H88.646z"/>
			</g>
			<path style="fill:#8C8C8C;" d="M47.138,347.462c0,1.065-0.864,1.929-1.929,1.929c-1.065,0-1.929-0.863-1.929-1.929
				s0.863-1.929,1.929-1.929C46.274,345.534,47.138,346.397,47.138,347.462z"/>
			<path style="fill:#8C8C8C;" d="M56.782,347.462c0,1.065-0.864,1.929-1.929,1.929c-1.065,0-1.929-0.863-1.929-1.929
				s0.864-1.929,1.929-1.929C55.918,345.534,56.782,346.397,56.782,347.462z"/>
			<path style="fill:#8C8C8C;" d="M66.426,347.462c0,1.065-0.864,1.929-1.929,1.929c-1.065,0-1.929-0.863-1.929-1.929
				s0.864-1.929,1.929-1.929C65.562,345.534,66.426,346.397,66.426,347.462z"/>
			<path style="fill:#8C8C8C;" d="M76.07,347.462c0,1.065-0.864,1.929-1.929,1.929c-1.065,0-1.929-0.863-1.929-1.929
				s0.864-1.929,1.929-1.929C75.206,345.534,76.07,346.397,76.07,347.462z"/>
			<path style="fill:#8C8C8C;" d="M85.714,347.462c0,1.065-0.864,1.929-1.929,1.929c-1.065,0-1.929-0.863-1.929-1.929
				s0.863-1.929,1.929-1.929C84.85,345.534,85.714,346.397,85.714,347.462z"/>
		</g>
	</g>
</g>
<g id="Box_1">
	<g>
		<rect x="33.672" y="364.902" style="fill:#CFCFCF;stroke:#263238;stroke-miterlimit:10;" width="90.346" height="76.67"/>
		<rect x="77.602" y="364.902" style="fill:#CFCFCF;stroke:#263238;stroke-miterlimit:10;" width="46.417" height="76.67"/>
	</g>
</g>
<g id="Character_2">
	<g>
		<g>
			<rect x="337.334" y="124.129" style="fill:#FFFFFF;stroke:#263238;stroke-miterlimit:10;" width="51.399" height="72.37"/>
			<rect x="340.127" y="128.062" style="fill:#FFFFFF;stroke:#263238;stroke-miterlimit:10;" width="45.814" height="64.506"/>
			<rect x="353.141" y="146.386" style="fill:#CFCFCF;stroke:#263238;stroke-miterlimit:10;" width="19.785" height="27.858"/>
		</g>
		<g>
			<g>
				<path style="fill:#FFFFFF;stroke:#263238;stroke-miterlimit:10;" d="M341.717,211.745l-7.804-5.203l2.927-38.045
					c0,0,1.301-2.601,1.301-4.227c0-1.626-0.65-5.203-0.65-5.203s1.951-3.902,0.975-4.878c-0.975-0.976-1.951,0.65-1.951,0.65
					l0.145-2.886c0,0-5.348,4.837-5.348,6.788c0,1.951,2.276,12.357,2.276,12.357s-8.78,27.965-10.405,33.493
					c-1.626,5.528-1.951,9.105-1.951,9.105l22.762,11.381L341.717,211.745z"/>
				<path style="fill:#FFFFFF;stroke:#263238;stroke-miterlimit:10;" d="M336.514,154.84c0,0-2.379,4.349-2.379,5.864
					c0,1.514,0,3.534,0,3.534"/>
			</g>
			<path style="fill:#FFFFFF;stroke:#263238;stroke-miterlimit:10;" d="M333.913,206.543c0,0-4.146-3.008-6.585-0.569"/>
		</g>
		<g>
			<path style="fill:#FFFFFF;stroke:#263238;stroke-miterlimit:10;" d="M391.469,206.705l4.146-7.804c0,0-1.463-8.78-2.195-14.877
				c-0.732-6.097-2.439-18.129-2.439-18.129s-1.707-4.065-1.707-6.26c0-2.195-0.975-4.39-1.463-5.609
				c-0.488-1.219-2.439-3.658-0.975-4.634c1.463-0.975,1.463-0.975,1.463-0.975l0.732-1.463l5.609,4.634c0,0,0,0,0.488,1.219
				c0.488,1.219,0.488,12.682,0.488,12.682s8.048,25.364,9.755,29.022c1.707,3.658,2.683,6.341,2.195,9.267
				c-0.488,2.927-2.683,9.024-7.804,12.194C394.639,219.143,391.469,206.705,391.469,206.705z"/>
			<path style="fill:#FFFFFF;stroke:#263238;stroke-miterlimit:10;" d="M396.59,198.657c0,0,1.951-3.414,7.072-0.976"/>
			<path style="fill:#FFFFFF;stroke:#263238;stroke-miterlimit:10;" d="M386.835,149.393c0,0,3.17,4.634,3.902,5.122
				c0.732,0.488,1.707,1.951,1.707,1.951"/>
		</g>
		<path style="fill:#FFFFFF;stroke:#263238;stroke-miterlimit:10;" d="M359.602,184.431c0,0-4.552-1.626-3.902,3.902
			c0.65,5.528,5.528,5.203,5.528,5.203s1.626,7.154,2.927,7.804c1.301,0.65,1.301,0.65,1.301,0.65l-1.301,7.804
			c0,0-5.203,1.626-6.178,1.626c-0.975,0-8.454-0.325-9.755-0.325s-8.129-0.976-8.129-0.976s-2.276,3.252-1.626,7.479
			c0.65,4.227,1.626,6.503,2.276,7.479c0.65,0.975,0.975,2.276,0.975,2.276l5.203,1.951l5.853,38.371h38.696l4.553-45.199
			l6.503-5.203c0,0-0.325-5.203-1.951-9.755c-1.626-4.552-8.454-3.577-8.454-3.577l-2.601,2.276c0,0-5.203,1.301-6.178,1.626
			c-0.975,0.325-3.902,1.301-3.902,1.301l-0.65-8.454l-11.056-17.885L359.602,184.431z"/>
		<path style="fill:#263238;stroke:#263238;stroke-miterlimit:10;" d="M388.217,179.228c0,0-2.927-11.706-10.731-15.283
			c-7.804-3.577-16.259,1.626-19.185,8.454c-2.926,6.829,1.951,15.933,1.951,15.933s4.552,13.332,8.78,15.283
			c4.227,1.951,11.381-0.65,15.283-5.853C388.217,192.56,388.542,184.431,388.217,179.228z"/>
		<ellipse style="fill:#263238;stroke:#263238;stroke-miterlimit:10;" cx="390.981" cy="176.627" rx="11.544" ry="10.731"/>
		<path style="fill:#263238;stroke:#263238;stroke-miterlimit:10;" d="M396.021,222.476l6.503-5.203c0,0-0.325-5.203-1.951-9.755
			c-1.626-4.552-8.454-3.577-8.454-3.577l-2.601,2.276c0,0-5.203,1.301-6.178,1.626c-0.735,0.245-2.578,0.859-3.441,1.147
			c-1.197,1.532-4.133,4.723-8.184,5.275c-4.519,0.616-7.99-2.91-8.975-4.041c-1.615,0.482-4.116,1.196-4.763,1.196
			c-0.976,0-8.455-0.325-9.755-0.325c-1.301,0-8.129-0.976-8.129-0.976s-2.276,3.252-1.626,7.479
			c0.65,4.227,1.626,6.503,2.276,7.479c0.65,0.975,0.975,2.276,0.975,2.276l5.203,1.951l5.853,38.371h38.696L396.021,222.476z"/>
		<g>
			<path style="fill:#FFFFFF;stroke:#263238;stroke-miterlimit:10;" d="M343.993,321.979c0,0,3.902,38.045,3.902,48.776
				s0.975,28.615,1.626,37.07c0.65,8.454,2.927,21.136,2.927,21.136s-1.626-0.65-2.276,2.276c-0.65,2.927-0.975,3.577-3.902,4.552
				s-5.203,2.927-3.902,4.552c1.301,1.626,8.454,2.276,13.657,3.577c5.203,1.301,5.853-0.325,5.853-3.902c0-3.577,0-10.406,0-10.406
				s3.577-55.279,3.577-57.231c0-1.951,1.301-48.451,1.301-48.451L343.993,321.979z"/>
			<path style="fill:#263238;stroke:#263238;stroke-miterlimit:10;" d="M353.636,325.854l12.802,9.51
				c0.183-6.606,0.318-11.434,0.318-11.434l-14.766-1.266L353.636,325.854z"/>
			<path style="fill:#FFFFFF;stroke:#263238;stroke-miterlimit:10;" d="M356.025,443.919c5.203,1.301,5.853-0.325,5.853-3.902
				s0-10.406,0-10.406c-4.227-2.276-6.178,4.552-7.479,3.902c-1.301-0.65-1.951-4.552-1.951-4.552s-1.626-0.65-2.276,2.276
				c-0.65,2.927-0.975,3.577-3.902,4.552c-2.926,0.975-5.203,2.927-3.902,4.552C343.668,441.968,350.822,442.619,356.025,443.919z"
				/>
		</g>
		<g>
			<path style="fill:#FFFFFF;stroke:#263238;stroke-miterlimit:10;" d="M375.861,322.955c0,0,3.902,31.867,4.227,38.37
				c0.325,6.504,20.161,65.685,20.161,65.685s1.951,9.755,2.927,12.682c0.976,2.927,1.626,3.577,3.577,3.577
				c1.951,0,8.129,0,8.78-2.601c0.65-2.601-3.252-10.406-4.227-13.007c-0.975-2.601-2.601-5.203-2.601-6.504
				c0-1.301-4.878-32.842-7.154-43.573c-2.276-10.731-5.528-16.259-5.528-16.259l6.503-44.224L375.861,322.955z"/>
			<path style="fill:#263238;stroke:#263238;stroke-miterlimit:10;" d="M401.659,322.987l-11.57-3.155l-14.229,3.123
				c0,0,0.648,5.293,1.438,12.004l24.151-10.545L401.659,322.987z"/>
			<path style="fill:#FFFFFF;stroke:#263238;stroke-miterlimit:10;" d="M406.752,443.269c1.951,0,8.129,0,8.78-2.601
				c0.65-2.601-3.252-10.406-4.227-13.007c-0.824-2.197-2.101-4.385-2.481-5.798c-8.29-2.92-8.574,5.148-8.574,5.148
				s1.951,9.755,2.927,12.682C404.151,442.619,404.801,443.269,406.752,443.269z"/>
			<path style="fill:#FFFFFF;stroke:#263238;stroke-miterlimit:10;" d="M409.028,435.465c-4.162,0.333-5.509,2.37-5.834,4.28
				c0.965,2.877,1.62,3.524,3.558,3.524c1.951,0,8.129,0,8.78-2.601c0.205-0.818-0.042-2.152-0.506-3.676
				C413.712,435.933,411.791,435.244,409.028,435.465z"/>
		</g>
		<g>
			<path style="fill:#92E3A9;stroke:#263238;stroke-miterlimit:10;" d="M359.602,211.095c0,0,2.601,30.241,1.301,34.468
				c-1.301,4.227-13.657,19.51-13.657,19.51l0.325,10.08c0,0-4.552,5.528-6.178,15.283c-1.626,9.755-3.577,32.842-3.577,32.842
				s12.357,2.601,19.836,3.902s11.056,0.325,11.056,0.325l3.252-10.731l1.626,10.731c0,0,8.129,1.301,16.909,1.301
				c8.78,0,15.283-7.154,15.283-7.154s-3.252-21.136-3.252-23.413c0-2.276-7.479-26.989-7.479-26.989l0.325-12.357
				c0,0-2.276-2.927-6.178-7.154c-3.902-4.227-6.178-11.056-6.178-11.056l3.252-33.168l-2.927,0.325l-3.902,32.192l-14.308-0.325
				l-2.391-29.486L359.602,211.095z"/>
			<g>
				<g>
					<line style="fill:#FFFFFF;stroke:#263238;stroke-miterlimit:10;" x1="360.766" y1="278.483" x2="390.213" y2="273.708"/>
					<line style="fill:#FFFFFF;stroke:#263238;stroke-miterlimit:10;" x1="358.379" y1="274.504" x2="367.399" y2="272.912"/>
				</g>
				<line style="fill:#FFFFFF;stroke:#263238;stroke-miterlimit:10;" x1="371.958" y1="316.777" x2="371.958" y2="309.623"/>
				<line style="fill:#FFFFFF;stroke:#263238;stroke-miterlimit:10;" x1="365.78" y1="308.972" x2="377.811" y2="308.972"/>
			</g>
		</g>
	</g>
</g>
<g id="Character_1">
	<g>
		<g>
			<path style="fill:#FFFFFF;stroke:#263238;stroke-miterlimit:10;" d="M108.524,431.238c0,0-9.43,13.495-9.43,15.446
				c0,1.951,1.707,2.683,1.707,2.683H120.8c0,0,1.707-1.707,1.707-4.39c0-2.683-0.325-13.088-0.325-13.088L108.524,431.238z"/>
			<path style="fill:#FFFFFF;stroke:#263238;stroke-miterlimit:10;" d="M100.801,449.366H120.8c0,0,0.997-1.008,1.465-2.683H99.094
				C99.094,448.634,100.801,449.366,100.801,449.366z"/>
		</g>
		<path style="fill:#263238;stroke:#263238;stroke-miterlimit:10;" d="M108.524,288.161v143.076l13.657,0.65l14.633-110.884
			l2.601,113.973c0,0,3.577-3.252,7.479-3.902c3.902-0.65,8.454-0.65,8.454-0.65l0.325-5.853l-0.65-6.829l7.154-125.354
			L108.524,288.161z"/>
		<g>
			<path style="fill:#FFFFFF;stroke:#263238;stroke-miterlimit:10;" d="M121.025,180.01l0.176,18.857
				c0,0-19.21,11.103-20.443,13.394c-1.234,2.291,6.628,78.095,6.628,80.29c0,2.195,3.658,2.439,7.56,3.171
				c3.902,0.732,23.412,2.195,30.485,1.951c7.073-0.244,14.877-1.951,16.34-2.927c1.463-0.976,2.927-74.627,1.707-79.017
				c-1.219-4.39-25.12-15.365-25.12-15.365l0.488-6.829L121.025,180.01z"/>
			<g>
				<line style="fill:none;stroke:#263238;stroke-miterlimit:10;" x1="115.19" y1="233.776" x2="121.531" y2="222.557"/>
				<line style="fill:none;stroke:#263238;stroke-miterlimit:10;" x1="112.752" y1="237.434" x2="122.995" y2="228.167"/>
			</g>
			<path style="fill:#FFFFFF;stroke:#263238;stroke-miterlimit:10;" d="M138.359,200.364l0.488-6.829l-17.822-13.526l0.176,18.857
				c0,0-1.467,0.848-3.612,2.121c3,5.085,9.196,13.69,16.135,12.302c5.259-1.052,9.311-5.505,11.931-9.388
				C141.55,201.831,138.359,200.364,138.359,200.364z"/>
			<polygon style="fill:#263238;stroke:#263238;stroke-miterlimit:10;" points="121.169,195.44 138.847,193.536 121.025,180.01 			
				"/>
		</g>
		<g>
			<rect x="138.928" y="243.825" style="fill:#CFCFCF;stroke:#263238;stroke-miterlimit:10;" width="71.846" height="60.971"/>
			<rect x="173.863" y="243.825" style="fill:#CFCFCF;stroke:#263238;stroke-miterlimit:10;" width="36.912" height="60.971"/>
		</g>
		<g>
			<rect x="144.551" y="204.936" style="fill:#CFCFCF;stroke:#263238;stroke-miterlimit:10;" width="58.642" height="38.56"/>
			<rect x="173.065" y="204.936" style="fill:#CFCFCF;stroke:#263238;stroke-miterlimit:10;" width="30.128" height="38.56"/>
		</g>
		<g>
			<path style="fill:#FFFFFF;stroke:#263238;stroke-miterlimit:10;" d="M105.923,209.144c0,0-5.609-0.244-8.536,5.365
				c-2.926,5.609-2.195,13.413-0.976,17.559c1.219,4.146,9.755,23.169,12.438,27.802c2.683,4.634,10.243,13.657,10.243,13.657
				s21.461,28.778,22.437,30.241c0.976,1.463,2.683,2.683,3.902,2.683c1.219,0,2.683,0,2.683,0s0.975,1.951,2.927,1.707
				c1.951-0.244,3.658-2.439,3.658-2.439s-2.439-2.439-2.683-4.146c-0.244-1.707,1.463-1.951,1.463-1.951s1.707,0.488,3.414,0
				c1.707-0.488,3.902-1.951,1.463-2.683c-2.439-0.732-4.39-0.488-4.39-0.488s-2.926-1.951-5.365-1.951
				c-2.439,0-5.609-1.219-5.609-1.219s-12.682-28.534-15.364-31.948c-2.683-3.414-4.146-7.56-4.146-7.56l-9.755-35.363"/>
			<path style="fill:none;stroke:#263238;stroke-miterlimit:10;" d="M104.202,209.319c-1.893,0.378-4.918,1.554-6.815,5.191
				c-2.926,5.609-2.195,13.413-0.976,17.559c0.191,0.65,0.562,1.666,1.062,2.934c3.204-2.724,9.439-5.815,19.983-3.072
				l-3.302-11.971"/>
		</g>
		<g>
			<path style="fill:#FFFFFF;stroke:#263238;stroke-miterlimit:10;" d="M155.349,430.425c0,0,6.91,6.503,11.056,9.186
				c4.146,2.683,8.78,5.121,8.78,5.853s0,4.146,0,4.146h-36.338l0.569-14.633C139.416,434.977,145.757,426.116,155.349,430.425z"/>
			<path style="fill:#FFFFFF;stroke:#263238;stroke-miterlimit:10;" d="M175.185,446.683h-36.224l-0.114,2.927h36.338
				C175.185,449.61,175.185,447.938,175.185,446.683z"/>
		</g>
		<g>
			<path style="fill:#FFFFFF;stroke:#263238;stroke-miterlimit:10;" d="M145.21,159.115c0,0,2.542,10.733,2.542,11.863
				c0,1.13-1.695,3.389-1.695,3.389s2.824,6.779,2.824,7.626c0,0.847-2.824,3.107-2.824,3.107s-1.977,11.016-3.107,11.863
				c-1.13,0.847-12.428-4.237-14.97-5.367c-2.542-1.13-6.496-8.756-6.496-8.756s-2.825-1.412-5.367-5.084
				c-2.542-3.672-0.283-6.779,2.26-8.756c2.542-1.977,5.367-11.298,5.367-11.298s-0.283-3.672,0.565-3.954
				c0.847-0.282,10.733-0.282,12.71-0.282C138.996,153.467,145.21,159.115,145.21,159.115z"/>
			<path style="fill:none;stroke:#263238;stroke-miterlimit:10;" d="M138.175,171.27c0,0,1.88-1.655,5.706-1.025"/>
			<path style="fill:#263238;" d="M142.174,174.723c0,0.973-0.276,1.762-0.617,1.762c-0.341,0-0.617-0.789-0.617-1.762
				c0-0.973,0.276-1.762,0.617-1.762C141.897,172.961,142.174,173.75,142.174,174.723z"/>
			<path style="fill:none;stroke:#263238;stroke-miterlimit:10;" d="M143.583,188.117c0,0-5.639,0-7.578-3.348"/>
		</g>
		<path style="fill:#263238;stroke:#263238;stroke-miterlimit:10;" d="M128.828,161.94c0,0,2.542,1.412,1.13,3.107
			c-1.412,1.695-5.084,2.26-5.084,3.389c0,1.13,0,5.084,0,6.214s0.847,2.542-0.847,2.542s-2.542-2.824-2.542-2.824
			s-1.412-1.977-3.672-1.977s-2.26,0-2.26,0s-2.825-12.428-1.695-15.817c1.13-3.389,9.321-10.451,19.207-10.451
			s15.535,3.954,15.535,8.191c0,4.237-3.954,6.214-3.954,6.214h-16.665L128.828,161.94z"/>
	</g>
</g>
</svg>
